<svg width="800" height="500" xmlns="http://www.w3.org/2000/svg">
  <defs>
    <linearGradient id="bgGradient" x1="0%" y1="0%" x2="100%" y2="100%">
      <stop offset="0%" style="stop-color:#f8fafc;stop-opacity:1" />
      <stop offset="100%" style="stop-color:#e2e8f0;stop-opacity:1" />
    </linearGradient>
    <linearGradient id="screenGradient" x1="0%" y1="0%" x2="100%" y2="100%">
      <stop offset="0%" style="stop-color:#0066ff;stop-opacity:1" />
      <stop offset="100%" style="stop-color:#0052cc;stop-opacity:1" />
    </linearGradient>
  </defs>
  
  <!-- Background -->
  <rect width="800" height="500" fill="url(#bgGradient)"/>
  
  <!-- Laptop -->
  <rect x="150" y="150" width="500" height="300" rx="20" fill="#1a1a1a"/>
  <rect x="170" y="170" width="460" height="260" rx="5" fill="url(#screenGradient)"/>
  
  <!-- Screen content -->
  <rect x="190" y="190" width="420" height="30" rx="5" fill="rgba(255,255,255,0.2)"/>
  <rect x="190" y="240" width="320" height="15" rx="3" fill="rgba(255,255,255,0.3)"/>
  <rect x="190" y="270" width="280" height="15" rx="3" fill="rgba(255,255,255,0.2)"/>
  <rect x="190" y="300" width="350" height="15" rx="3" fill="rgba(255,255,255,0.25)"/>
  
  <!-- UI Elements -->
  <circle cx="550" cy="250" r="40" fill="rgba(255,255,255,0.15)"/>
  <rect x="190" y="350" width="100" height="30" rx="15" fill="rgba(255,255,255,0.3)"/>
  <rect x="310" y="350" width="100" height="30" rx="15" fill="rgba(255,255,255,0.2)"/>
  
  <!-- Decorative elements -->
  <circle cx="100" cy="100" r="30" fill="#0066ff" opacity="0.1"/>
  <circle cx="700" cy="400" r="40" fill="#0066ff" opacity="0.1"/>
  <rect x="50" y="300" width="60" height="60" rx="10" fill="#0066ff" opacity="0.05"/>
</svg>