<svg width="400" height="300" xmlns="http://www.w3.org/2000/svg">
  <defs>
    <linearGradient id="detailGradient" x1="0%" y1="0%" x2="100%" y2="100%">
      <stop offset="0%" style="stop-color:#f1f5f9;stop-opacity:1" />
      <stop offset="100%" style="stop-color:#e2e8f0;stop-opacity:1" />
    </linearGradient>
  </defs>
  
  <!-- Background -->
  <rect width="400" height="300" fill="url(#detailGradient)"/>
  
  <!-- Design elements -->
  <rect x="50" y="50" width="300" height="200" rx="15" fill="white" stroke="#e2e8f0" stroke-width="2"/>
  
  <!-- Content blocks -->
  <rect x="70" y="70" width="260" height="25" rx="5" fill="#0066ff" opacity="0.1"/>
  <rect x="70" y="110" width="180" height="12" rx="6" fill="#64748b" opacity="0.3"/>
  <rect x="70" y="130" width="200" height="12" rx="6" fill="#64748b" opacity="0.2"/>
  <rect x="70" y="150" width="150" height="12" rx="6" fill="#64748b" opacity="0.25"/>
  
  <!-- UI components -->
  <circle cx="280" cy="120" r="30" fill="#0066ff" opacity="0.1"/>
  <rect x="280" y="115" width="10" height="10" fill="#0066ff"/>
  
  <rect x="70" y="190" width="80" height="25" rx="12" fill="#0066ff"/>
  <rect x="160" y="190" width="80" height="25" rx="12" fill="white" stroke="#0066ff" stroke-width="1"/>
  
  <!-- Decorative elements -->
  <circle cx="30" cy="30" r="15" fill="#0066ff" opacity="0.1"/>
  <circle cx="370" cy="270" r="20" fill="#0066ff" opacity="0.1"/>
  <rect x="20" y="200" width="20" height="20" rx="5" fill="#0066ff" opacity="0.05"/>
</svg>